<svg width="24" height="18" viewBox="0 0 24 18" fill="none" xmlns="http://www.w3.org/2000/svg">
<path d="M1.6 3.19995C0.716345 3.19995 -5.81516e-08 2.48361 -1.29885e-07 1.59995C-2.01619e-07 0.716296 0.716344 -4.88927e-05 1.6 -4.89135e-05L22.4 -4.9403e-05C23.2837 -4.94238e-05 24 0.716295 24 1.59995C24 2.48361 23.2837 3.19995 22.4 3.19995L1.6 3.19995Z" fill="white"/>
<path d="M1.6 10.4C0.716345 10.4 -5.81516e-08 9.68368 -1.29885e-07 8.80002C-2.01619e-07 7.91637 0.716344 7.20002 1.6 7.20002L22.4 7.20002C23.2837 7.20002 24 7.91637 24 8.80002C24 9.68368 23.2837 10.4 22.4 10.4L1.6 10.4Z" fill="white"/>
<path d="M1.6 17.6C0.716345 17.6 -5.81516e-08 16.8836 -1.29885e-07 16C-2.01619e-07 15.1163 0.716344 14.4 1.6 14.4L22.4 14.4C23.2837 14.4 24 15.1163 24 16C24 16.8836 23.2837 17.6 22.4 17.6L1.6 17.6Z" fill="white"/>
</svg>
