<svg width="17" height="13" viewBox="0 0 17 13" fill="none"
	xmlns="http://www.w3.org/2000/svg">
	<path d="M14.9247 0H2.07883C0.932133 0 0 0.932133 0 2.07883V10.8585C0 12.0052 0.932133 12.9373 2.07883 12.9373H14.9212C16.0679 12.9373 17 12.0052 17 10.8585V2.08235C17.0035 0.93565 16.0714 0 14.9247 0ZM16.0538 10.8585C16.0538 11.4811 15.5473 11.9876 14.9247 11.9876H2.07883C1.45624 11.9876 0.94972 11.4811 0.94972 10.8585V2.08235C0.94972 1.45976 1.45624 0.953238 2.07883 0.953238H14.9212C15.5438 0.953238 16.0503 1.45976 16.0503 2.08235V10.8585H16.0538Z" fill="#A1ADCC"/>
	<path d="M10.7213 6.3596L14.8789 2.63107C15.0724 2.4552 15.09 2.15621 14.9141 1.95923C14.7382 1.76577 14.4392 1.74818 14.2423 1.92406L8.50877 7.07013L7.39021 6.07117C7.38669 6.06765 7.38317 6.06413 7.38317 6.06062C7.35855 6.036 7.33393 6.01489 7.30579 5.99378L2.75417 1.92054C2.55719 1.74467 2.2582 1.76225 2.08233 1.95923C1.90645 2.15621 1.92404 2.4552 2.12102 2.63107L6.32793 6.39126L2.13861 10.3133C1.94866 10.4926 1.93811 10.7916 2.1175 10.9851C2.21248 11.0836 2.33911 11.1363 2.46573 11.1363C2.58181 11.1363 2.69789 11.0941 2.78934 11.0097L7.04198 7.03144L8.19571 8.06207C8.28717 8.14297 8.39973 8.18166 8.51229 8.18166C8.62485 8.18166 8.74092 8.13945 8.82886 8.05855L10.0143 6.99627L14.2423 11.0132C14.3337 11.1012 14.4533 11.1434 14.5694 11.1434C14.696 11.1434 14.8191 11.0941 14.9141 10.9956C15.0935 10.8057 15.0865 10.5032 14.8965 10.3238L10.7213 6.3596Z" fill="#A1ADCC"/>
</svg>
