<svg width="16" height="16" viewBox="0 0 16 16" fill="none" xmlns="http://www.w3.org/2000/svg">
<g clip-path="url(#clip0_5_18)">
<path d="M14.2743 14.1322V8.43429C14.2743 7.40571 13.4351 6.56653 12.4065 6.56653H11.9363V3.93796C11.9363 1.76653 10.1698 0 7.99836 0C5.82693 0 4.06367 1.7698 4.06367 3.93796V4.39184C4.06367 4.70204 4.3151 4.9502 4.62203 4.9502C4.92897 4.9502 5.18367 4.69878 5.18367 4.39184V3.93796C5.18367 2.38367 6.44734 1.12 8.00163 1.12C9.55591 1.12 10.8196 2.38367 10.8196 3.93796V6.56653H3.59346C2.56489 6.56653 1.72571 7.40245 1.72571 8.43429V14.1322C1.72571 15.1608 2.56489 16 3.59346 16H12.4098C13.4384 15.9967 14.2743 15.1608 14.2743 14.1322ZM2.84897 14.1322V8.43429C2.84897 8.02286 3.1853 7.68653 3.59673 7.68653H12.4098C12.8212 7.68653 13.1575 8.02286 13.1575 8.43429V14.1322C13.1575 14.5437 12.8212 14.88 12.4098 14.88H3.59346C3.18203 14.8767 2.84897 14.5437 2.84897 14.1322Z" fill="#A1ADCC"/>
<path d="M8.00157 10.031C7.69137 10.031 7.43994 10.2824 7.43994 10.5894V12.0359C7.43994 12.3461 7.69137 12.5943 8.00157 12.5943C8.31178 12.5943 8.55994 12.3429 8.55994 12.0359V10.5894C8.55994 10.2824 8.31178 10.031 8.00157 10.031Z" fill="#A1ADCC"/>
</g>
<defs>
<clipPath id="clip0_5_18">
<rect width="16" height="16" fill="white"/>
</clipPath>
</defs>
</svg>
